<svg xmlns="http://www.w3.org/2000/svg" viewBox="0 0 43.1 35.37"><defs><style>.cls-1{fill:#2569ab;}</style></defs><title>자산 2</title><g id="레이어_2" data-name="레이어 2"><g id="레이어_1-2" data-name="레이어 1"><path class="cls-1" d="M18.72,28.11a.94.94,0,0,1-.67-.28L12.4,22.19a.94.94,0,1,1,1.33-1.33l5,5L29.36,15.2a.94.94,0,0,1,1.33,1.33L19.39,27.84A.94.94,0,0,1,18.72,28.11Z"/><path class="cls-1" d="M34.52,13.52,21.9,3.2a.57.57,0,0,0-.7,0L8.57,13.52v19A.44.44,0,0,0,9,32.9h25a.45.45,0,0,0,.47-.41v-19Zm2.88,2.36V34.14A1.35,1.35,0,0,1,36,35.37H7.13a1.35,1.35,0,0,1-1.45-1.23V15.88L2.44,18.54a1.62,1.62,0,0,1-2,0,1.11,1.11,0,0,1,0-1.74L20.51.35a1.71,1.71,0,0,1,2.08,0l20.07,16.4a1.11,1.11,0,0,1,0,1.74,1.61,1.61,0,0,1-2,0Z"/></g></g></svg>