<svg xmlns="http://www.w3.org/2000/svg" viewBox="0 0 47.58 47.58"><defs><style>.cls-1{fill:#2569ab;}</style></defs><title>자산 1</title><g id="레이어_2" data-name="레이어 2"><g id="레이어_1-2" data-name="레이어 1"><path class="cls-1" d="M23.79,11.91A11.88,11.88,0,1,0,35.67,23.79,11.91,11.91,0,0,0,23.79,11.91Zm0,3.39a8.49,8.49,0,1,1-8.49,8.49A8.46,8.46,0,0,1,23.79,15.3Z"/><path class="cls-1" d="M23.76,0a1.7,1.7,0,0,0-1.67,1.72V5.12a1.7,1.7,0,1,0,3.39,0s0,0,0,0V1.72A1.7,1.7,0,0,0,23.81,0h0Z"/><path class="cls-1" d="M39,6.8a1.7,1.7,0,0,0-1.17.51l-2.4,2.4a1.7,1.7,0,0,0,2.35,2.45l0,0,2.4-2.4A1.7,1.7,0,0,0,39,6.8Z"/><path class="cls-1" d="M42.46,22.09a1.7,1.7,0,1,0,0,3.39h3.44a1.7,1.7,0,1,0,0-3.39H42.46Z"/><path class="cls-1" d="M36.65,35a1.7,1.7,0,0,0-1.18,2.91l2.4,2.4a1.7,1.7,0,0,0,2.45-2.35l0,0-2.4-2.4A1.7,1.7,0,0,0,36.65,35Z"/><path class="cls-1" d="M23.76,40.74a1.7,1.7,0,0,0-1.67,1.72v3.39a1.7,1.7,0,0,0,3.39,0s0,0,0,0V42.46a1.7,1.7,0,0,0-1.67-1.72h0Z"/><path class="cls-1" d="M10.88,35a1.7,1.7,0,0,0-1.17.51l-2.4,2.4a1.7,1.7,0,1,0,2.35,2.45l0,0,2.4-2.4A1.7,1.7,0,0,0,10.88,35Z"/><path class="cls-1" d="M1.72,22.09a1.7,1.7,0,0,0,0,3.39H5.12a1.7,1.7,0,1,0,0-3.39H1.72Z"/><path class="cls-1" d="M8.49,6.8A1.7,1.7,0,0,0,7.31,9.71l2.4,2.4a1.7,1.7,0,0,0,2.45-2.35l0,0-2.4-2.4A1.7,1.7,0,0,0,8.49,6.8Z"/></g></g></svg>