<svg xmlns="http://www.w3.org/2000/svg" viewBox="0 0 47.58 47.42"><defs><style>.cls-1{fill:gray;}</style></defs><title>sun_gray</title><g id="레이어_2" data-name="레이어 2"><g id="레이어_1-2" data-name="레이어 1"><g id="레이어_2-2" data-name="레이어 2"><g id="레이어_1-2-2" data-name="레이어 1-2"><path class="cls-1" d="M23.64,11.91A11.88,11.88,0,1,0,35.52,23.79h0A11.91,11.91,0,0,0,23.64,11.91Zm0,3.39a8.46,8.46,0,1,1-.06,0Z"/><path class="cls-1" d="M23.61,0a1.7,1.7,0,0,0-1.67,1.72v3.4a1.7,1.7,0,1,0,3.39,0h0V1.72A1.7,1.7,0,0,0,23.66,0h0Z"/><path class="cls-1" d="M38.85,6.8a1.7,1.7,0,0,0-1.17.51l-2.4,2.4a1.7,1.7,0,0,0,2.35,2.45h0L40,9.76a1.7,1.7,0,0,0-1.18-3Z"/><path class="cls-1" d="M42.31,22.09A1.7,1.7,0,0,0,42,25.48h3.7A1.7,1.7,0,0,0,46,22.09h-3.7Z"/><path class="cls-1" d="M36.5,35a1.7,1.7,0,0,0-1.18,2.91l2.4,2.4A1.7,1.7,0,0,0,40.17,38h0l-2.4-2.4A1.7,1.7,0,0,0,36.5,35Z"/><path class="cls-1" d="M23.61,40.74a1.7,1.7,0,0,0-1.67,1.72v3.39a1.7,1.7,0,0,0,3.39,0h0V42.46a1.7,1.7,0,0,0-1.67-1.72h0Z"/><path class="cls-1" d="M10.73,35a1.7,1.7,0,0,0-1.17.51l-2.4,2.4a1.7,1.7,0,0,0,2.21,2.58l.14-.13h0l2.4-2.4a1.7,1.7,0,0,0-1.18-3Z"/><path class="cls-1" d="M1.57,22.09a1.7,1.7,0,0,0,0,3.39H5a1.7,1.7,0,1,0,.26-3.39H1.57Z"/><path class="cls-1" d="M8.34,6.8A1.7,1.7,0,0,0,7.16,9.71l2.4,2.4A1.7,1.7,0,0,0,12,9.76h0l-2.4-2.4A1.7,1.7,0,0,0,8.34,6.8Z"/></g></g></g></g></svg>